<svg aria-hidden="true" style="position: absolute; width: 0; height: 0; overflow: hidden;" version="1.1" xmlns="http://www.w3.org/2000/svg" xmlns:xlink="http://www.w3.org/1999/xlink">
<defs>
<symbol id="icon-hert" viewBox="0 0 32 32">
<path  fill="none" stroke-linejoin="round" stroke-linecap="round" stroke-miterlimit="4" stroke-width="1.4667" d="M26.267 21.481c2.185-2.055 4.4-4.518 4.4-7.741 0-2.053-0.85-4.022-2.363-5.474s-3.565-2.267-5.704-2.267c-2.581 0-4.4 0.704-6.6 2.815-2.2-2.111-4.019-2.815-6.6-2.815-2.139 0-4.191 0.816-5.704 2.267s-2.363 3.421-2.363 5.474c0 3.237 2.2 5.7 4.4 7.741l10.267 9.852 10.267-9.852z"></path>
</symbol>

<symbol id="icon-sleep" viewBox="0 0 32 32">
<path fill="#fff" style="fill: var(--color1, #fff)" d="M30.015 18.482c-0.323-0.253-0.767-0.285-1.122-0.081-1.686 0.969-3.469 1.461-5.298 1.461-5.877 0-10.658-4.781-10.658-10.658 0-1.837 0.492-3.617 1.463-5.29 0.206-0.355 0.176-0.8-0.077-1.124s-0.677-0.462-1.072-0.348c-2.839 0.818-5.394 2.555-7.195 4.889-1.869 2.423-2.857 5.324-2.857 8.391 0 7.652 6.225 13.877 13.876 13.877 3.067 0 5.969-0.988 8.393-2.856 2.336-1.8 4.073-4.354 4.891-7.191 0.114-0.394-0.023-0.818-0.346-1.071zM17.076 27.587c-6.542 0-11.864-5.322-11.864-11.864 0-4.413 2.526-8.43 6.364-10.448-0.433 1.272-0.651 2.587-0.651 3.931 0 6.986 5.684 12.67 12.67 12.67 1.341 0 2.658-0.219 3.937-0.654-2.018 3.839-6.038 6.366-10.455 6.366z"></path>
</symbol>
<symbol id="icon-brightness" viewBox="0 0 32 32">
<path fill="#8b8b8b" style="fill: var(--color2, #8b8b8b)" d="M15.998 26.822c-0.57 0-1.033 0.462-1.033 1.032v3.117c0 0.57 0.462 1.032 1.033 1.032s1.033-0.462 1.033-1.032v-3.117c0-0.57-0.462-1.032-1.033-1.032z"></path>
<path fill="#8b8b8b" style="fill: var(--color2, #8b8b8b)" d="M15.998 5.185c0.57 0 1.033-0.462 1.033-1.032v-3.117c0-0.57-0.462-1.032-1.033-1.032s-1.033 0.462-1.033 1.032v3.117c0 0.57 0.462 1.032 1.033 1.032z"></path>
<path fill="#8b8b8b" style="fill: var(--color2, #8b8b8b)" d="M6.891 23.652l-2.205 2.204c-0.403 0.403-0.404 1.057-0 1.46 0.202 0.202 0.466 0.303 0.73 0.303s0.528-0.101 0.73-0.302l2.205-2.204c0.403-0.403 0.403-1.057 0-1.46s-1.057-0.404-1.46-0z"></path>
<path fill="#8b8b8b" style="fill: var(--color2, #8b8b8b)" d="M24.378 8.656c0.264 0 0.528-0.101 0.73-0.302l2.205-2.204c0.403-0.403 0.404-1.057 0-1.46s-1.057-0.404-1.46-0l-2.205 2.204c-0.403 0.403-0.404 1.057-0 1.46 0.202 0.202 0.466 0.302 0.731 0.302z"></path>
<path fill="#8b8b8b" style="fill: var(--color2, #8b8b8b)" d="M5.182 16.001c0-0.57-0.462-1.033-1.032-1.033h-3.117c-0.57 0-1.032 0.462-1.032 1.033s0.462 1.032 1.032 1.032h3.117c0.57 0 1.032-0.462 1.032-1.032z"></path>
<path fill="#8b8b8b" style="fill: var(--color2, #8b8b8b)" d="M30.968 14.969h-3.118c-0.57 0-1.032 0.462-1.032 1.033s0.462 1.032 1.032 1.032h3.118c0.57 0 1.032-0.462 1.032-1.032s-0.462-1.033-1.032-1.033z"></path>
<path fill="#8b8b8b" style="fill: var(--color2, #8b8b8b)" d="M6.89 8.354c0.202 0.202 0.466 0.302 0.73 0.302s0.528-0.101 0.73-0.302c0.403-0.403 0.403-1.057 0-1.46l-2.204-2.204c-0.403-0.403-1.057-0.403-1.46-0s-0.403 1.057-0 1.46l2.204 2.204z"></path>
<path fill="#8b8b8b" style="fill: var(--color2, #8b8b8b)" d="M25.11 23.652c-0.403-0.403-1.057-0.403-1.46-0s-0.403 1.057-0 1.46l2.204 2.204c0.202 0.202 0.466 0.302 0.73 0.302s0.529-0.101 0.73-0.302c0.403-0.403 0.403-1.057 0-1.46l-2.204-2.204z"></path>
<path fill="#8b8b8b" style="fill: var(--color2, #8b8b8b)" d="M16 6.706c-5.126 0-9.296 4.17-9.296 9.296s4.17 9.296 9.296 9.296 9.296-4.17 9.296-9.296c0-5.126-4.17-9.296-9.296-9.296zM16 23.233c-3.987 0-7.231-3.244-7.231-7.231s3.244-7.231 7.231-7.231c3.987 0 7.23 3.244 7.23 7.231s-3.244 7.231-7.23 7.231z"></path>
</symbol>
<symbol id="icon-cart" viewBox="0 0 48 48">

<path d="M26 0C20.4961 0 16.0565 4.37372 16.0565 9.79592V11.7551H8.19492L8.10169 12.6122L4.12429 46.898L4 48H48L47.8757 46.898L43.8983 12.6122L43.8051 11.7551H35.9435V9.79592C35.9435 4.37372 31.5039 0 26 0ZM26 1.95918C30.4396 1.95918 33.9548 5.42219 33.9548 9.79592V11.7551H18.0452V9.79592C18.0452 5.42219 21.5604 1.95918 26 1.95918ZM9.99717 13.7143H16.0565V15.949C15.4622 16.2895 15.0621 16.9094 15.0621 17.6327C15.0621 18.7156 15.9516 19.5918 17.0508 19.5918C18.1501 19.5918 19.0395 18.7156 19.0395 17.6327C19.0395 16.9094 18.6395 16.2895 18.0452 15.949V13.7143H33.9548V15.949C33.3605 16.2895 32.9605 16.9094 32.9605 17.6327C32.9605 18.7156 33.8499 19.5918 34.9492 19.5918C36.0484 19.5918 36.9379 18.7156 36.9379 17.6327C36.9379 16.9094 36.5378 16.2895 35.9435 15.949V13.7143H42.0028L45.7627 46.0408H6.23729L9.99717 13.7143Z" fill="#424436"/>
</symbol>
<symbol id="icon-menu" viewBox="0 0 32 32">
<path stroke-linejoin="round" stroke-linecap="square" stroke-miterlimit="4" stroke-width="2.1818" d="M4.364 16h23.273"></path>
<path stroke-linejoin="round" stroke-linecap="square" stroke-miterlimit="4" stroke-width="2.1818" d="M4.364 8.727h23.273"></path>
<path stroke-linejoin="round" stroke-linecap="square" stroke-miterlimit="4" stroke-width="2.1818" d="M4.364 23.273h23.273"></path>
</symbol>
<symbol id="icon-close" viewBox="0 0 32 32">
<path stroke-linejoin="round" stroke-linecap="round" stroke-miterlimit="4" stroke-width="2.6667" d="M24 8l-16 16"></path>
<path stroke-linejoin="round" stroke-linecap="round" stroke-miterlimit="4" stroke-width="2.6667" d="M8 8l16 16"></path>
</symbol>
</defs>
</svg>
